HIERARCHY
ROOT mixamorig1:Hips
{
	OFFSET 0.000000 0.000000 0.000000
	CHANNELS 6 Xposition Yposition Zposition Xrotation Yrotation Zrotation
	JOINT mixamorig1:Spine
	{
		OFFSET 0.000000 9.717224 -1.180208
		CHANNELS 3 Xrotation Yrotation Zrotation
		JOINT mixamorig1:Spine1
		{
			OFFSET 0.000000 11.336823 -1.376933
			CHANNELS 3 Xrotation Yrotation Zrotation
			JOINT mixamorig1:Spine2
			{
				OFFSET 0.000000 12.956345 -1.573653
				CHANNELS 3 Xrotation Yrotation Zrotation
				JOINT mixamorig1:Neck
				{
					OFFSET 0.000000 14.575974 -1.770439
					CHANNELS 3 Xrotation Yrotation Zrotation
					JOINT mixamorig1:Head
					{
						OFFSET 0.000000 6.720200 1.972157
						CHANNELS 3 Xrotation Yrotation Zrotation
						JOINT mixamorig1:HeadTop_End
						{
							OFFSET 0.000000 20.999847 6.162763
							CHANNELS 3 Xrotation Yrotation Zrotation
							End Site
							{
								OFFSET 0.000000 21.885452 -0.000002
							}
						}
					}
				}
				JOINT mixamorig1:LeftShoulder
				{
					OFFSET 6.140116 12.877853 -1.799545
					CHANNELS 3 Xrotation Yrotation Zrotation
					JOINT mixamorig1:LeftArm
					{
						OFFSET 12.545031 -3.431427 -0.058010
						CHANNELS 3 Xrotation Yrotation Zrotation
						JOINT mixamorig1:LeftForeArm
						{
							OFFSET 25.447281 -1.876373 -1.505625
							CHANNELS 3 Xrotation Yrotation Zrotation
							JOINT mixamorig1:LeftHand
							{
								OFFSET 23.367504 0.877640 0.971305
								CHANNELS 3 Xrotation Yrotation Zrotation
								JOINT mixamorig1:LeftHandThumb1
								{
									OFFSET 3.575478 -1.761887 3.039434
									CHANNELS 3 Xrotation Yrotation Zrotation
									JOINT mixamorig1:LeftHandThumb2
									{
										OFFSET 2.860405 -1.409454 2.431552
										CHANNELS 3 Xrotation Yrotation Zrotation
										JOINT mixamorig1:LeftHandThumb3
										{
											OFFSET 2.578941 -1.801514 1.750709
											CHANNELS 3 Xrotation Yrotation Zrotation
											JOINT mixamorig1:LeftHandThumb4
											{
												OFFSET 2.408989 -1.461151 1.064221
												CHANNELS 3 Xrotation Yrotation Zrotation
												End Site
												{
													OFFSET 2.176476 -1.503357 1.440013
												}
											}
										}
									}
								}
								JOINT mixamorig1:LeftHandIndex1
								{
									OFFSET 11.357018 -1.306473 4.439679
									CHANNELS 3 Xrotation Yrotation Zrotation
									JOINT mixamorig1:LeftHandIndex2
									{
										OFFSET 3.215240 -0.390930 0.624045
										CHANNELS 3 Xrotation Yrotation Zrotation
										JOINT mixamorig1:LeftHandIndex3
										{
											OFFSET 2.938980 -0.735489 0.560646
											CHANNELS 3 Xrotation Yrotation Zrotation
											JOINT mixamorig1:LeftHandIndex4
											{
												OFFSET 2.552437 -0.779205 0.483288
												CHANNELS 3 Xrotation Yrotation Zrotation
												End Site
												{
													OFFSET 2.555870 -0.777603 0.467434
												}
											}
										}
									}
								}
								JOINT mixamorig1:LeftHandMiddle1
								{
									OFFSET 12.195602 -0.657242 2.108765
									CHANNELS 3 Xrotation Yrotation Zrotation
									JOINT mixamorig1:LeftHandMiddle2
									{
										OFFSET 3.379944 -0.547394 0.236206
										CHANNELS 3 Xrotation Yrotation Zrotation
										JOINT mixamorig1:LeftHandMiddle3
										{
											OFFSET 3.043900 -0.829651 0.195068
											CHANNELS 3 Xrotation Yrotation Zrotation
											JOINT mixamorig1:LeftHandMiddle4
											{
												OFFSET 2.806625 -0.600723 0.188473
												CHANNELS 3 Xrotation Yrotation Zrotation
												End Site
												{
													OFFSET 2.806618 -0.600739 0.188510
												}
											}
										}
									}
								}
								JOINT mixamorig1:LeftHandRing1
								{
									OFFSET 12.563576 -0.458878 -0.154891
									CHANNELS 3 Xrotation Yrotation Zrotation
									JOINT mixamorig1:LeftHandRing2
									{
										OFFSET 2.596565 -0.829819 0.032336
										CHANNELS 3 Xrotation Yrotation Zrotation
										JOINT mixamorig1:LeftHandRing3
										{
											OFFSET 2.548286 -0.608398 0.044838
											CHANNELS 3 Xrotation Yrotation Zrotation
											JOINT mixamorig1:LeftHandRing4
											{
												OFFSET 2.167870 -0.507812 0.038965
												CHANNELS 3 Xrotation Yrotation Zrotation
												End Site
												{
													OFFSET 2.167732 -0.508163 0.042114
												}
											}
										}
									}
								}
								JOINT mixamorig1:LeftHandPinky1
								{
									OFFSET 11.341652 -0.310532 -2.253323
									CHANNELS 3 Xrotation Yrotation Zrotation
									JOINT mixamorig1:LeftHandPinky2
									{
										OFFSET 2.648827 -0.669128 -0.120024
										CHANNELS 3 Xrotation Yrotation Zrotation
										JOINT mixamorig1:LeftHandPinky3
										{
											OFFSET 2.075249 -0.703857 -0.105192
											CHANNELS 3 Xrotation Yrotation Zrotation
											JOINT mixamorig1:LeftHandPinky4
											{
												OFFSET 1.850784 -0.684036 -0.097376
												CHANNELS 3 Xrotation Yrotation Zrotation
												End Site
												{
													OFFSET 1.850731 -0.683411 -0.102854
												}
											}
										}
									}
								}
							}
						}
					}
				}
				JOINT mixamorig1:RightShoulder
				{
					OFFSET -6.140133 12.877823 -1.741388
					CHANNELS 3 Xrotation Yrotation Zrotation
					JOINT mixamorig1:RightArm
					{
						OFFSET -12.545002 -3.431366 0.058123
						CHANNELS 3 Xrotation Yrotation Zrotation
						JOINT mixamorig1:RightForeArm
						{
							OFFSET -25.447330 -1.876465 -1.671036
							CHANNELS 3 Xrotation Yrotation Zrotation
							JOINT mixamorig1:RightHand
							{
								OFFSET -23.367435 0.877640 0.912149
								CHANNELS 3 Xrotation Yrotation Zrotation
								JOINT mixamorig1:RightHandThumb1
								{
									OFFSET -3.655281 -1.787811 3.110017
									CHANNELS 3 Xrotation Yrotation Zrotation
									JOINT mixamorig1:RightHandThumb2
									{
										OFFSET -2.924309 -1.430252 2.488113
										CHANNELS 3 Xrotation Yrotation Zrotation
										JOINT mixamorig1:RightHandThumb3
										{
											OFFSET -2.528549 -1.776962 1.706924
											CHANNELS 3 Xrotation Yrotation Zrotation
											JOINT mixamorig1:RightHandThumb4
											{
												OFFSET -2.443375 -1.162323 1.073468
												CHANNELS 3 Xrotation Yrotation Zrotation
												End Site
												{
													OFFSET -2.204521 -1.202744 1.472025
												}
											}
										}
									}
								}
								JOINT mixamorig1:RightHandIndex1
								{
									OFFSET -11.888382 -1.247833 4.755188
									CHANNELS 3 Xrotation Yrotation Zrotation
									JOINT mixamorig1:RightHandIndex2
									{
										OFFSET -3.042244 -0.516434 0.442817
										CHANNELS 3 Xrotation Yrotation Zrotation
										JOINT mixamorig1:RightHandIndex3
										{
											OFFSET -2.738869 -0.708374 0.392164
											CHANNELS 3 Xrotation Yrotation Zrotation
											JOINT mixamorig1:RightHandIndex4
											{
												OFFSET -2.432571 -0.620773 0.348507
												CHANNELS 3 Xrotation Yrotation Zrotation
												End Site
												{
													OFFSET -2.433441 -0.620270 0.343348
												}
											}
										}
									}
								}
								JOINT mixamorig1:RightHandMiddle1
								{
									OFFSET -12.008347 -0.748550 2.098396
									CHANNELS 3 Xrotation Yrotation Zrotation
									JOINT mixamorig1:RightHandMiddle2
									{
										OFFSET -3.442291 -0.415817 0.287318
										CHANNELS 3 Xrotation Yrotation Zrotation
										JOINT mixamorig1:RightHandMiddle3
										{
											OFFSET -3.106178 -0.837677 0.240102
											CHANNELS 3 Xrotation Yrotation Zrotation
											JOINT mixamorig1:RightHandMiddle4
											{
												OFFSET -2.855728 -0.604996 0.227592
												CHANNELS 3 Xrotation Yrotation Zrotation
												End Site
												{
													OFFSET -2.855972 -0.604736 0.225131
												}
											}
										}
									}
								}
								JOINT mixamorig1:RightHandRing1
								{
									OFFSET -12.328026 -0.608994 -0.015787
									CHANNELS 3 Xrotation Yrotation Zrotation
									JOINT mixamorig1:RightHandRing2
									{
										OFFSET -2.763496 -0.569153 -0.029507
										CHANNELS 3 Xrotation Yrotation Zrotation
										JOINT mixamorig1:RightHandRing3
										{
											OFFSET -2.573975 -0.772354 -0.042469
											CHANNELS 3 Xrotation Yrotation Zrotation
											JOINT mixamorig1:RightHandRing4
											{
												OFFSET -2.323860 -0.456833 -0.023427
												CHANNELS 3 Xrotation Yrotation Zrotation
												End Site
												{
													OFFSET -2.323814 -0.457275 -0.019363
												}
											}
										}
									}
								}
								JOINT mixamorig1:RightHandPinky1
								{
									OFFSET -11.463135 -0.329407 -2.202621
									CHANNELS 3 Xrotation Yrotation Zrotation
									JOINT mixamorig1:RightHandPinky2
									{
										OFFSET -2.569016 -0.599854 -0.108848
										CHANNELS 3 Xrotation Yrotation Zrotation
										JOINT mixamorig1:RightHandPinky3
										{
											OFFSET -2.016190 -0.737000 -0.102787
											CHANNELS 3 Xrotation Yrotation Zrotation
											JOINT mixamorig1:RightHandPinky4
											{
												OFFSET -1.796242 -0.576553 -0.085258
												CHANNELS 3 Xrotation Yrotation Zrotation
												End Site
												{
													OFFSET -1.796211 -0.576279 -0.087722
												}
											}
										}
									}
								}
							}
						}
					}
				}
			}
		}
	}
	JOINT mixamorig1:LeftUpLeg
	{
		OFFSET 8.078197 -5.402374 -0.535866
		CHANNELS 3 Xrotation Yrotation Zrotation
		JOINT mixamorig1:LeftLeg
		{
			OFFSET 3.743073 -42.540520 -2.695462
			CHANNELS 3 Xrotation Yrotation Zrotation
			JOINT mixamorig1:LeftFoot
			{
				OFFSET 3.359008 -41.940849 -2.882249
				CHANNELS 3 Xrotation Yrotation Zrotation
				JOINT mixamorig1:LeftToeBase
				{
					OFFSET 1.133368 -9.116440 13.321876
					CHANNELS 3 Xrotation Yrotation Zrotation
					JOINT mixamorig1:LeftToe_End
					{
						OFFSET 0.591574 -0.054443 6.177378
						CHANNELS 3 Xrotation Yrotation Zrotation
						End Site
						{
							OFFSET 0.591574 -0.054443 6.177376
						}
					}
				}
			}
		}
	}
	JOINT mixamorig1:RightUpLeg
	{
		OFFSET -8.078202 -5.402405 -0.751774
		CHANNELS 3 Xrotation Yrotation Zrotation
		JOINT mixamorig1:RightLeg
		{
			OFFSET -3.743069 -42.540482 -2.464520
			CHANNELS 3 Xrotation Yrotation Zrotation
			JOINT mixamorig1:RightFoot
			{
				OFFSET -3.359002 -41.940781 -2.968978
				CHANNELS 3 Xrotation Yrotation Zrotation
				JOINT mixamorig1:RightToeBase
				{
					OFFSET -1.133408 -9.116798 13.416487
					CHANNELS 3 Xrotation Yrotation Zrotation
					JOINT mixamorig1:RightToe_End
					{
						OFFSET -0.591589 -0.054611 6.151404
						CHANNELS 3 Xrotation Yrotation Zrotation
						End Site
						{
							OFFSET -0.591589 -0.054611 6.151402
						}
					}
				}
			}
		}
	}
}
MOTION
Frames: 4
Frame Time: 0.033333
-59.050205 103.276703 -218.957901 353.717903 -2.257561 -360.342585 9.322455 -1.025002 -0.050743 0.960290 -0.455317 -0.027323 1.680401 -0.797070 -0.042806 4.678654 -0.702449 0.822140 -3.506668 -1.667891 1.110320 0.000000 -0.000000 0.000000 7.471328 -5.394023 -10.222640 -14.792988 -3.805918 -74.063054 -0.294303 1.836061 -1.416325 -0.727865 -4.937556 -9.782378 0.000002 -0.000003 0.000001 -0.000002 0.000002 0.000001 -0.000004 -0.000001 -0.000001 -0.000000 0.000002 -0.000001 -0.000001 0.000000 0.000001 -0.000002 0.000000 -0.000001 0.000001 0.000001 -0.000004 0.000001 -0.000001 -0.000001 -0.000001 -0.000001 0.000002 0.000001 0.000000 -0.000003 0.000001 0.000001 -0.000000 -0.000000 0.000000 -0.000002 0.000001 -0.000000 0.000001 -0.000001 -0.000000 -0.000002 -0.000000 -0.000000 0.000001 0.000000 -0.000000 -0.000002 0.000000 -0.000000 0.000001 -0.000001 -0.000001 -0.000001 -0.000001 -0.000000 -0.000001 0.000000 0.000000 0.000005 0.750493 6.374356 10.420270 -6.009331 11.563410 80.020563 -7.328282 -2.532847 -3.663901 6.525286 0.386486 -3.488499 0.000001 0.000003 0.000001 -0.000003 0.000000 -0.000001 0.000003 -0.000000 -0.000003 -0.000000 0.000001 0.000004 0.000001 0.000001 -0.000000 -0.000003 0.000000 0.000000 0.000001 -0.000001 -0.000003 -0.000001 0.000001 -0.000001 0.000000 0.000000 -0.000000 0.000004 -0.000001 0.000001 0.000003 -0.000000 -0.000001 0.000001 -0.000000 -0.000001 -0.000001 0.000001 0.000000 0.000001 -0.000000 -0.000001 -0.000000 -0.000001 0.000000 0.000000 -0.000000 0.000001 0.000000 0.000000 0.000001 -0.000000 -0.000001 0.000002 0.000002 0.000001 0.000005 -0.000000 -0.000000 0.000004 5.483604 -2.038725 -1.509345 4.047286 -0.163454 0.346052 -5.942608 -3.125493 1.101955 0.000116 -0.000004 0.000914 0.000000 0.000001 0.000001 9.530382 -3.190066 1.539441 0.752707 -0.535268 -0.018938 -6.711915 0.560356 0.443534 0.000146 0.000020 -0.002033 0.000000 -0.000000 -0.000000 
-59.045002 103.276108 -218.955322 353.744786 -2.249430 -360.341465 9.277905 -1.005516 -0.054821 0.940501 -0.446642 -0.028948 1.645752 -0.781904 -0.045847 4.700101 -0.718769 0.814959 -3.467071 -1.693154 1.089522 0.000000 0.000000 -0.000000 7.541087 -5.448671 -10.211311 -14.801440 -3.771721 -74.056326 -0.308815 1.846418 -1.415908 -0.717843 -4.926524 -9.827274 0.000001 -0.000003 -0.000003 -0.000002 -0.000000 -0.000002 -0.000005 0.000002 0.000005 0.000003 0.000004 0.000000 0.000001 -0.000002 -0.000000 -0.000003 0.000000 -0.000001 -0.000001 0.000001 -0.000004 0.000000 0.000002 0.000001 0.000001 -0.000000 0.000000 0.000001 -0.000000 -0.000001 0.000002 -0.000001 -0.000003 -0.000000 -0.000001 -0.000001 0.000001 -0.000000 0.000001 0.000000 -0.000001 -0.000003 0.000001 0.000000 0.000003 -0.000000 0.000001 -0.000000 0.000002 -0.000000 0.000003 -0.000000 -0.000001 -0.000001 0.000002 -0.000000 -0.000002 -0.000000 0.000001 0.000003 0.766246 6.400302 10.440675 -5.943139 11.499721 80.007224 -7.321382 -2.537946 -3.651329 6.531285 0.390913 -3.470684 0.000001 0.000002 0.000002 -0.000007 -0.000001 -0.000005 0.000005 0.000001 0.000001 -0.000000 -0.000001 0.000001 -0.000000 -0.000001 -0.000001 -0.000001 -0.000001 0.000001 -0.000002 -0.000002 -0.000002 -0.000005 -0.000001 -0.000001 0.000001 -0.000001 -0.000001 -0.000002 0.000000 0.000001 0.000003 0.000000 0.000000 -0.000002 0.000000 0.000002 -0.000000 -0.000000 0.000001 0.000000 0.000000 0.000001 -0.000002 -0.000000 -0.000001 0.000001 -0.000000 -0.000001 -0.000001 -0.000002 0.000001 -0.000001 -0.000001 0.000002 -0.000001 0.000000 0.000001 0.000001 0.000000 0.000004 5.463791 -2.032034 -1.509155 4.035691 -0.169664 0.341605 -5.937851 -3.134473 1.105957 0.000110 0.000001 0.000916 0.000000 0.000000 -0.000000 9.509813 -3.182640 1.536478 0.743884 -0.541761 -0.016820 -6.710048 0.552658 0.445591 0.000145 0.000024 -0.002035 0.000000 0.000001 0.000000 
-59.040333 103.275604 -218.955353 353.770768 -2.253479 -360.340099 9.241941 -0.976239 -0.060051 0.924526 -0.433612 -0.031064 1.617789 -0.759116 -0.049770 4.710652 -0.737209 0.813058 -3.447539 -1.724971 1.076943 -0.000001 0.000001 0.000000 7.580828 -5.490495 -10.203235 -14.796717 -3.749335 -74.047870 -0.299678 1.854039 -1.418414 -0.707387 -4.919488 -9.859257 -0.000005 -0.000003 -0.000003 -0.000003 -0.000001 -0.000001 -0.000004 0.000001 0.000001 0.000003 -0.000001 -0.000004 -0.000001 0.000001 -0.000002 -0.000004 -0.000001 0.000001 0.000002 -0.000003 -0.000000 -0.000001 0.000001 -0.000002 -0.000002 0.000001 -0.000001 -0.000001 0.000001 0.000001 0.000002 -0.000001 -0.000003 0.000002 -0.000001 -0.000003 -0.000002 0.000001 -0.000001 0.000000 -0.000000 0.000000 0.000000 -0.000001 -0.000002 -0.000000 0.000001 -0.000002 0.000000 0.000001 0.000001 0.000001 0.000000 -0.000003 -0.000000 -0.000000 0.000001 -0.000001 0.000001 0.000003 0.780911 6.409133 10.464848 -5.893577 11.414999 79.991685 -7.309534 -2.527680 -3.639559 6.538884 0.402832 -3.434809 0.000002 0.000003 0.000004 -0.000002 -0.000003 -0.000001 0.000005 -0.000001 -0.000003 -0.000002 0.000002 0.000004 0.000002 0.000001 0.000000 -0.000002 -0.000001 0.000000 0.000000 -0.000001 -0.000001 -0.000001 0.000000 -0.000001 0.000004 -0.000001 0.000001 0.000002 -0.000001 0.000003 0.000002 -0.000000 -0.000002 0.000001 0.000001 0.000000 0.000003 0.000001 0.000002 -0.000001 -0.000000 0.000001 -0.000001 -0.000001 -0.000001 0.000000 0.000000 -0.000001 0.000001 -0.000001 -0.000000 -0.000002 -0.000001 0.000002 -0.000002 0.000000 -0.000000 -0.000000 -0.000000 0.000002 5.442321 -2.020451 -1.508561 4.027821 -0.173310 0.334078 -5.933929 -3.139512 1.109280 0.000104 -0.000003 0.000918 0.000000 -0.000000 0.000001 9.484861 -3.168486 1.532743 0.739420 -0.543739 -0.016970 -6.708632 0.545077 0.447881 0.000150 0.000027 -0.002038 -0.000000 -0.000000 0.000001 
-59.036087 103.275131 -218.956787 353.796177 -2.262863 -360.338623 9.210581 -0.942181 -0.066086 0.910603 -0.418452 -0.033529 1.593409 -0.732611 -0.054311 4.714140 -0.757478 0.815206 -3.441027 -1.762150 1.070579 0.000001 -0.000001 0.000000 7.605640 -5.525441 -10.196629 -14.784549 -3.733242 -74.038663 -0.282973 1.858722 -1.421764 -0.697530 -4.915448 -9.885142 -0.000002 0.000000 -0.000002 -0.000002 -0.000004 -0.000005 -0.000003 -0.000001 0.000002 -0.000003 0.000006 0.000002 -0.000000 -0.000000 -0.000001 -0.000002 0.000001 -0.000002 -0.000000 -0.000001 0.000001 0.000001 0.000003 -0.000002 -0.000001 0.000000 0.000002 -0.000002 0.000000 -0.000001 -0.000000 0.000002 -0.000000 0.000001 -0.000001 -0.000003 -0.000001 0.000001 -0.000003 -0.000001 0.000001 0.000000 0.000000 0.000000 -0.000002 -0.000001 -0.000001 -0.000002 -0.000004 0.000000 -0.000001 -0.000001 -0.000000 -0.000001 -0.000001 0.000000 -0.000001 0.000001 -0.000000 0.000003 0.794903 6.409787 10.491159 -5.853184 11.322648 79.974528 -7.294664 -2.509400 -3.627489 6.547486 0.418218 -3.390804 0.000004 0.000003 0.000002 -0.000005 -0.000002 0.000001 0.000005 0.000001 -0.000003 -0.000005 -0.000001 0.000003 0.000001 0.000001 0.000001 0.000002 0.000000 0.000001 0.000001 0.000001 -0.000001 -0.000001 0.000000 -0.000002 0.000001 0.000000 0.000000 0.000003 -0.000001 -0.000000 0.000001 0.000001 0.000001 -0.000002 0.000000 0.000000 0.000001 -0.000000 0.000001 -0.000001 -0.000000 -0.000002 0.000000 -0.000000 -0.000001 0.000001 -0.000000 0.000001 -0.000001 0.000000 0.000001 -0.000002 -0.000001 -0.000000 0.000002 0.000000 -0.000000 -0.000002 -0.000000 0.000000 5.420007 -2.006636 -1.507607 4.021781 -0.175528 0.325173 -5.930293 -3.143172 1.112035 0.000110 -0.000001 0.000918 -0.000000 0.000001 0.000000 9.457675 -3.150978 1.528933 0.737450 -0.543573 -0.018370 -6.707641 0.536963 0.450151 0.000149 0.000021 -0.002036 -0.000000 0.000001 -0.000000 
